<svg width="400" height="300" viewBox="0 0 400 300" xmlns="http://www.w3.org/2000/svg">
  <defs>
    <linearGradient id="bg2" x1="0" y1="0" x2="1" y2="1">
      <stop offset="0" stop-color="#1a1424"/>
      <stop offset="1" stop-color="#0d0b14"/>
    </linearGradient>
    <linearGradient id="panelA" x1="0" y1="0" x2="1" y2="1">
      <stop offset="0" stop-color="#7c3aed"/>
      <stop offset="1" stop-color="#5b21b6"/>
    </linearGradient>
    <linearGradient id="panelB" x1="0" y1="0" x2="1" y2="1">
      <stop offset="0" stop-color="#ec4899"/>
      <stop offset="1" stop-color="#9d174d"/>
    </linearGradient>
  </defs>
  <rect width="400" height="300" fill="url(#bg2)"/>
  <rect x="36" y="40" width="150" height="90" rx="8" fill="url(#panelA)" opacity="0.85"/>
  <rect x="200" y="40" width="164" height="60" rx="8" fill="#22202c"/>
  <rect x="200" y="112" width="78" height="60" rx="8" fill="url(#panelB)" opacity="0.85"/>
  <rect x="286" y="112" width="78" height="60" rx="8" fill="#22202c"/>
  <rect x="36" y="146" width="150" height="100" rx="8" fill="#22202c"/>
  <rect x="200" y="184" width="164" height="62" rx="8" fill="#1c1a26" stroke="#3a3645" stroke-width="1"/>
  <g fill="#9ca3af">
    <rect x="52" y="56" width="60" height="6" rx="3" fill="#f5f5f7" opacity="0.85"/>
    <rect x="52" y="72" width="100" height="5" rx="2.5" opacity="0.6"/>
    <rect x="52" y="86" width="80" height="5" rx="2.5" opacity="0.4"/>
    <rect x="52" y="170" width="60" height="5" rx="2.5" opacity="0.6"/>
    <rect x="52" y="184" width="100" height="5" rx="2.5" opacity="0.4"/>
    <rect x="52" y="198" width="70" height="5" rx="2.5" opacity="0.3"/>
  </g>
  <g stroke="#3a3645" stroke-width="6" stroke-linecap="round">
    <line x1="216" y1="58" x2="216" y2="84"/>
    <line x1="234" y1="48" x2="234" y2="84"/>
    <line x1="252" y1="64" x2="252" y2="84"/>
    <line x1="270" y1="40" x2="270" y2="84"/>
  </g>
  <g stroke="#3a3645" stroke-width="6" stroke-linecap="round">
    <line x1="216" y1="58" x2="216" y2="84"/>
  </g>
  <circle cx="332" cy="142" r="22" fill="none" stroke="#f5f5f7" stroke-width="6" opacity="0.85"/>
  <path d="M332 120 A22 22 0 0 1 354 142" fill="none" stroke="#ec4899" stroke-width="6" stroke-linecap="round"/>
  <text x="32" y="270" fill="#6b7280" font-family="monospace" font-size="12" letter-spacing="2">MULTI-SAAS ECOSYSTEM</text>
</svg>
